<?xml version="1.0" encoding="UTF-8"?><svg width="17px" height="17px" viewBox="0 0 17 17" version="1.1" xmlns="http://www.w3.org/2000/svg" xmlns:xlink="http://www.w3.org/1999/xlink"><!--Generator: sketchtool 54 (76480) - https://sketchapp.com--><title>EA2379C1-F62A-4BDD-B78E-ED69CF116A59</title><desc>Created with sketchtool.</desc><g id="Page-1" stroke="none" stroke-width="1" fill="none" fill-rule="evenodd"><g id="Product-Landing-Final" transform="translate(-192.000000, -3960.000000)"><g id="Group-143" transform="translate(-1.000000, 2485.000000)"><g id="Group-142" transform="translate(81.000000, 80.000000)"><g id="Group-5" transform="translate(0.000000, 880.000000)"><g id="Group-116" transform="translate(112.000000, 513.000000)"><g id="check" transform="translate(0.000000, 2.831793)"><path d="M15.5691777,6.66058278 C15.1898984,6.66058278 14.8824707,6.96350903 14.8824707,7.33716169 L14.8824707,8.0186149 C14.8814414,9.79619661 14.1778672,11.4670017 12.901373,12.723197 C11.6258086,13.9784763 9.93078906,14.6696454 8.12805859,14.6696454 C8.12673047,14.6696454 8.12540234,14.6696454 8.12407422,14.6696454 C4.39961328,14.6675517 1.37128906,11.6805222 1.37341406,8.01095996 C1.37444336,6.23341096 2.07801758,4.56260585 3.35454492,3.30634517 C4.63010938,2.05106589 6.32516211,1.35989679 8.12785938,1.35989679 C8.1291875,1.35989679 8.13051563,1.35989679 8.13184375,1.35989679 C9.08384375,1.3604202 10.0074883,1.55427992 10.8770781,1.9360128 C11.2235859,2.08813019 11.6294277,1.93467155 11.7838223,1.59337245 C11.9381504,1.25207336 11.7824941,0.852119114 11.4360527,0.70000172 C10.389623,0.24060719 9.27821484,0.00736051907 8.13260742,0.00673896413 C8.13088086,0.00673896413 8.12955273,0.00673896413 8.12782617,0.00673896413 C5.95869922,0.00673896413 3.91876563,0.838575759 2.38391797,2.3490197 C0.847875,3.86064132 0.00126171875,5.87117528 -4.78495265e-17,8.01024027 C-0.00122851563,10.1492398 0.842994141,12.1607225 2.37731055,13.6741106 C3.91162695,15.1874988 5.95222461,16.0216255 8.12327734,16.0228686 C8.1249707,16.0228686 8.12633203,16.0228686 8.12805859,16.0228686 C10.2971855,16.0228686 12.3371191,15.1910645 13.8719668,13.6805879 C15.4080098,12.1689335 16.254623,10.1583996 16.2558848,8.01900746 L16.2558848,7.3371944 C16.2558848,6.96350903 15.948457,6.66058278 15.5691777,6.66058278 Z" id="Path" fill="#FFCD0E"/><path d="M16.7988555,0.942244581 C16.5306738,0.678051017 16.0958789,0.678051017 15.8276973,0.942244581 L8.12792578,8.52842081 L6.38114258,6.8074006 C6.11299414,6.54317432 5.67816602,6.54317432 5.41001758,6.8074006 C5.14183594,7.07162687 5.14183594,7.50000908 5.41001758,7.76423536 L7.64239648,9.96368931 C7.7764707,10.0958188 7.95224805,10.1618672 8.12799219,10.1618672 C8.30373633,10.1618672 8.47948047,10.0958188 8.61358789,9.96368931 L16.7988555,1.89907935 C17.0670371,1.63485307 17.0670371,1.20647086 16.7988555,0.942244581 Z" id="Path" fill="#0084E6"/></g></g></g></g></g></g></g></svg>