<?xml version="1.0" encoding="UTF-8"?>
<svg width="101px" height="101px" viewBox="0 0 101 101" version="1.1" xmlns="http://www.w3.org/2000/svg" xmlns:xlink="http://www.w3.org/1999/xlink">
    <!-- Generator: Sketch 54.1 (76490) - https://sketchapp.com -->
    <title>Group 19</title>
    <desc>Created with Sketch.</desc>
    <g id="Page-1" stroke="none" stroke-width="1" fill="none" fill-rule="evenodd">
        <g id="Artboard" transform="translate(-338.000000, -23.000000)">
            <g id="Group-19" transform="translate(339.000000, 24.000000)">
                <circle id="Oval" stroke="#FFCD0D" stroke-width="2" fill="#FFFFFF" cx="49.5" cy="49.5" r="49.5"></circle>
                <g id="agriculture" opacity="0.58812314" transform="translate(31.000000, 24.000000)" fill="#9DA8AD" fill-rule="nonzero">
                    <g id="strategy">
                        <path d="M34,6.53138672 L27.473,6.53138672 C27.239,4.5421875 25.457,2.99027344 23.3,2.99027344 L22.567,2.99027344 C22.099,1.27300781 20.453,0 18.5,0 C16.547,0 14.901,1.27300781 14.433,2.99027344 L13.7,2.99027344 C11.543,2.99027344 9.761,4.5421875 9.527,6.53138672 L3,6.53138672 C1.346,6.53138672 0,7.87113281 0,9.51966797 L0,48.0117188 C0,49.6592578 1.346,51 3,51 L34,51 C35.654,51 37,49.6592578 37,48.0117188 L37,9.51966797 C37,7.87113281 35.654,6.53138672 34,6.53138672 Z M11.556,6.53138672 C11.78,5.64486328 12.657,4.98246094 13.7,4.98246094 L15.3,4.98246094 C15.852,4.98246094 16.3,4.53720703 16.3,3.98736328 C16.301,2.88667969 17.288,1.9921875 18.5,1.9921875 C19.712,1.9921875 20.699,2.88667969 20.7,3.98736328 C20.7,4.53720703 21.148,4.98246094 21.7,4.98246094 L23.3,4.98246094 C24.343,4.98246094 25.22,5.64486328 25.444,6.53138672 C25.481,6.67482422 25.5,6.82523438 25.5,6.97863281 C25.5,7.60119141 25.184,8.15800781 24.69,8.52357422 C24.31,8.80447266 23.826,8.97380859 23.3,8.97380859 L13.7,8.97380859 C13.174,8.97380859 12.69,8.80447266 12.31,8.52357422 C11.816,8.15800781 11.5,7.60119141 11.5,6.97863281 C11.5,6.82523437 11.519,6.67482422 11.556,6.53138672 Z M35,48.0117188 C35,48.5605664 34.551,49.0078125 34,49.0078125 L3,49.0078125 C2.449,49.0078125 2,48.5605664 2,48.0117188 L2,9.51966797 C2,8.96982422 2.449,8.52357422 3,8.52357422 L9.828,8.52357422 C10.465,9.95695313 11.961,10.9659961 13.7,10.9659961 L23.3,10.9659961 C25.039,10.9659961 26.535,9.95695313 27.172,8.52357422 L34,8.52357422 C34.551,8.52357422 35,8.96982422 35,9.51966797 L35,48.0117188 Z" id="Shape"></path>
                        <path d="M27.0491,47.0867461 C24.8454,47.0867461 23.0526,45.2993555 23.0526,43.1023711 C23.0526,40.9053867 24.8454,39.1179961 27.0491,39.1179961 C29.2528,39.1179961 31.0456,40.9053867 31.0456,43.1023711 C31.0456,45.2993555 29.2527,47.0867461 27.0491,47.0867461 Z M27.0491,41.1101836 C25.9482,41.1101836 25.0526,42.0038789 25.0526,43.1023711 C25.0526,44.2008633 25.9482,45.0945586 27.0491,45.0945586 C28.15,45.0945586 29.0456,44.2008633 29.0456,43.1023711 C29.0456,42.0038789 28.15,41.1101836 27.0491,41.1101836 Z" id="Shape"></path>
                        <path d="M7.8779,19.0253906 C5.6742,19.0253906 3.8815,17.238 3.8815,15.0410156 C3.8815,12.8440312 5.6743,11.0566406 7.8779,11.0566406 C10.0815,11.0566406 11.8744,12.8440312 11.8744,15.0410156 C11.8744,17.238 10.0815,19.0253906 7.8779,19.0253906 Z M7.8779,13.0488281 C6.7771,13.0488281 5.8815,13.9425234 5.8815,15.0410156 C5.8815,16.1395078 6.7771,17.0332031 7.8779,17.0332031 C8.9788,17.0332031 9.8744,16.1395078 9.8744,15.0410156 C9.8744,13.9425234 8.9788,13.0488281 7.8779,13.0488281 Z" id="Shape"></path>
                        <path d="M16.197,45.0314063 C16.001,45.2336133 15.739,45.3352148 15.478,45.3352148 C15.227,45.3352148 14.977,45.2425781 14.783,45.0553125 L13.348,43.6727344 L11.961,45.1051172 C11.764,45.3073242 11.503,45.4089258 11.241,45.4089258 C10.991,45.4089258 10.741,45.3162891 10.547,45.1300195 C10.149,44.7485156 10.138,44.1179883 10.521,43.721543 L11.909,42.2881641 L10.472,40.9035938 C10.075,40.5220898 10.064,39.8905664 10.448,39.4951172 C10.832,39.099668 11.465,39.089707 11.862,39.472207 L13.297,40.8547852 L14.684,39.4224023 C15.068,39.0269531 15.701,39.015 16.098,39.3975 C16.496,39.7790039 16.507,40.4095313 16.124,40.8059766 L14.736,42.2393555 L16.173,43.6229297 C16.57,44.0054297 16.581,44.635957 16.197,45.0314063 Z" id="Path"></path>
                        <path d="M31.344,22.7766797 C31.148,22.9788867 30.887,23.0804883 30.625,23.0804883 C30.375,23.0804883 30.124,22.9868555 29.93,22.8005859 L28.494,21.4180078 L27.108,22.8493945 C26.912,23.0516016 26.65,23.1541992 26.388,23.1541992 C26.138,23.1541992 25.888,23.0615625 25.694,22.8742969 C25.296,22.492793 25.285,21.8622656 25.668,21.4658203 L27.056,20.0324414 L25.619,18.6488672 C25.222,18.2663672 25.211,17.6358398 25.595,17.2403906 C25.979,16.8439453 26.612,16.8339844 27.009,17.2164844 L28.444,18.5990625 L29.831,17.1666797 C30.215,16.7712305 30.848,16.7592773 31.245,17.1417773 C31.643,17.5232813 31.654,18.1538086 31.271,18.5502539 L29.883,19.9836328 L31.32,21.3682031 C31.717,21.749707 31.728,22.3812305 31.344,22.7766797 Z" id="Path"></path>
                        <path d="M27.0491,33.6748418 C26.4968,33.6748418 26.0491,33.2288906 26.0491,32.678748 L26.0491,32.6467734 C26.0491,31.101334 24.3771,29.8440645 22.322,29.8440645 C17.993,29.8440645 14.4712,26.927502 14.4712,23.3425605 L14.4712,22.0931602 L13.0032,23.2742285 C12.5735,23.619873 11.9439,23.5532344 11.5969,23.1252129 C11.4474,22.9408359 11.3748,22.7196035 11.3748,22.4998652 C11.3748,22.2093047 11.5019,21.9212344 11.7465,21.7244063 L14.8428,19.2331758 C14.8431,19.232877 14.8435,19.2325781 14.8439,19.2322793 C15.0157,19.0944199 15.2218,19.0213066 15.4301,19.0127402 C15.4919,19.01025 15.5544,19.0133379 15.6162,19.0224023 C15.6165,19.0224023 15.6169,19.0222031 15.6171,19.022502 C15.7647,19.0441172 15.9084,19.0987031 16.0365,19.1863594 C16.0366,19.186459 16.0368,19.186459 16.0368,19.1865586 C16.0607,19.2028945 16.0837,19.220127 16.1059,19.2382559 L19.1958,21.7243066 C19.6254,22.0699512 19.6924,22.6971914 19.3454,23.1251133 C18.9985,23.5530352 18.3689,23.619873 17.9391,23.2741289 L16.4711,22.0929609 L16.4711,23.3423613 C16.4711,25.8288105 19.0958,27.8516777 22.3219,27.8516777 C25.4799,27.8516777 28.049,30.0026426 28.049,32.6465742 L28.049,32.6785488 C28.0491,33.2288906 27.6014,33.6748418 27.0491,33.6748418 Z" id="Path"></path>
                        <path d="M11.252,32.7505664 C11.056,32.9527734 10.795,33.054375 10.533,33.054375 C10.283,33.054375 10.032,32.9617383 9.838,32.7744727 L8.402,31.3918945 L7.016,32.8232813 C6.82,33.0264844 6.558,33.1280859 6.296,33.1280859 C6.046,33.1280859 5.796,33.0354492 5.602,32.8491797 C5.205,32.4666797 5.193,31.8361523 5.577,31.4407031 L6.965,30.0073242 L5.527,28.6227539 C5.13,28.2402539 5.12,27.6097266 5.503,27.2142773 C5.887,26.8188281 6.52,26.8078711 6.917,27.1903711 L8.353,28.5739453 L9.74,27.1415625 C10.123,26.7451172 10.756,26.7341602 11.154,27.1156641 C11.551,27.4981641 11.563,28.1286914 11.179,28.5241406 L9.791,29.9575195 L11.228,31.3420898 C11.625,31.7245898 11.636,32.3551172 11.252,32.7505664 Z" id="Path"></path>
                        <path d="M27.0511,37.1217246 C26.4988,37.1217246 26.0506,36.6757734 26.0506,36.1256309 C26.0506,35.5754883 26.4978,35.1295371 27.0501,35.1295371 L27.0511,35.1295371 C27.6034,35.1295371 28.0511,35.5754883 28.0511,36.1256309 C28.0511,36.6757734 27.6034,37.1217246 27.0511,37.1217246 Z" id="Path"></path>
                    </g>
                </g>
            </g>
        </g>
    </g>
</svg>