<?xml version="1.0" encoding="UTF-8"?>
<svg width="101px" height="101px" viewBox="0 0 101 101" version="1.1" xmlns="http://www.w3.org/2000/svg" xmlns:xlink="http://www.w3.org/1999/xlink">
    <!-- Generator: Sketch 54.1 (76490) - https://sketchapp.com -->
    <title>Group 60</title>
    <desc>Created with Sketch.</desc>
    <g id="Page-1" stroke="none" stroke-width="1" fill="none" fill-rule="evenodd">
        <g id="Artboard" transform="translate(-623.000000, -23.000000)">
            <g id="Group-60" transform="translate(624.000000, 24.000000)">
                <circle id="Oval-Copy-19" stroke="#128CE7" stroke-width="2" fill="#FFFFFF" cx="49.5" cy="49.5" r="49.5"></circle>
                <g id="open-book" opacity="0.58812314" transform="translate(25.000000, 28.000000)" fill="#9DA8AD" fill-rule="nonzero">
                    <path d="M49.1666667,5.00119904 L46.6666667,5.00119904 L46.6666667,0.876498801 C46.6666667,0.420928856 46.2935384,0.051558753 45.8333333,0.051558753 L31.6666667,0.051558753 C28.4375,0.051558753 26.1450196,1.01989658 25,2.78457544 C23.8549804,1.01989658 21.5625,0.051558753 18.3333333,0.051558753 L4.16666667,0.051558753 C3.70646156,0.051558753 3.33333333,0.420928856 3.33333333,0.876498801 L3.33333333,5.00119904 L0.833333333,5.00119904 C0.373128229,5.00119904 0,5.37056914 0,5.82613909 L0,38.823741 C0,39.279311 0.373128229,39.6486811 0.833333333,39.6486811 L18.7801106,39.6486811 C19.5760092,40.537264 22.0300293,42.9484412 25.2156575,42.9484412 C27.3909505,42.9484412 29.4132487,41.8387196 31.2333171,39.6486811 L49.1666667,39.6486811 C49.6268718,39.6486811 50,39.279311 50,38.823741 L50,5.82613909 C50,5.37056914 49.6268718,5.00119904 49.1666667,5.00119904 Z M31.6666667,1.70143885 L45,1.70143885 L45,33.0491607 L31.6666667,33.0491607 C29.0926106,33.0491607 27.1118165,33.6630321 25.8333333,34.8053807 L25.8333333,5.82613909 C25.8333333,3.08909432 27.7958171,1.70143885 31.6666667,1.70143885 Z M5,1.70143885 L18.3333333,1.70143885 C22.2041829,1.70143885 24.1666667,3.08909432 24.1666667,5.82613909 L24.1666667,34.8053807 C22.8881835,33.6630321 20.9073894,33.0491607 18.3333333,33.0491607 L5,33.0491607 L5,1.70143885 Z M48.3333333,37.998801 L30.8333333,37.998801 C30.5761719,37.998801 30.332845,38.1160166 30.1749675,38.317418 C28.6234538,40.291957 26.9576009,41.2985612 25.2242025,41.2985612 L25.2156575,41.2985612 C22.2159831,41.2985612 19.8465983,38.346017 19.823405,38.3162095 C19.6655273,38.1160166 19.4234213,37.998801 19.1666667,37.998801 L1.66666667,37.998801 L1.66666667,6.65107914 L3.33333333,6.65107914 L3.33333333,33.8741007 C3.33333333,34.3296707 3.70646156,34.6990408 4.16666667,34.6990408 L18.3333333,34.6990408 C22.2041829,34.6990408 24.1666667,36.0866962 24.1666667,38.823741 C24.1666667,39.279311 24.5397949,39.6486811 25,39.6486811 C25.4602051,39.6486811 25.8333333,39.279311 25.8333333,38.823741 C25.8333333,36.0866962 27.7958171,34.6990408 31.6666667,34.6990408 L45.8333333,34.6990408 C46.2935384,34.6990408 46.6666667,34.3296707 46.6666667,33.8741007 L46.6666667,6.65107914 L48.3333333,6.65107914 L48.3333333,37.998801 Z" id="Shape"></path>
                    <path d="M9.16666667,8.30095923 L20,8.30095923 C20.4602051,8.30095923 20.8333333,7.93158913 20.8333333,7.47601918 C20.8333333,7.02044924 20.4602051,6.65107914 20,6.65107914 L9.16666667,6.65107914 C8.70646156,6.65107914 8.33333333,7.02044924 8.33333333,7.47601918 C8.33333333,7.93158913 8.70646156,8.30095923 9.16666667,8.30095923 Z" id="Path"></path>
                    <path d="M9.16666667,13.2505995 L20,13.2505995 C20.4602051,13.2505995 20.8333333,12.8812294 20.8333333,12.4256595 C20.8333333,11.9700895 20.4602051,11.6007194 20,11.6007194 L9.16666667,11.6007194 C8.70646156,11.6007194 8.33333333,11.9700895 8.33333333,12.4256595 C8.33333333,12.8812294 8.70646156,13.2505995 9.16666667,13.2505995 Z" id="Path"></path>
                    <path d="M9.16666667,18.2002398 L20,18.2002398 C20.4602051,18.2002398 20.8333333,17.8308697 20.8333333,17.3752998 C20.8333333,16.9197298 20.4602051,16.5503597 20,16.5503597 L9.16666667,16.5503597 C8.70646156,16.5503597 8.33333333,16.9197298 8.33333333,17.3752998 C8.33333333,17.8308697 8.70646156,18.2002398 9.16666667,18.2002398 Z" id="Path"></path>
                    <path d="M9.16666667,23.1498801 L20,23.1498801 C20.4602051,23.1498801 20.8333333,22.78051 20.8333333,22.32494 C20.8333333,21.8693701 20.4602051,21.5 20,21.5 L9.16666667,21.5 C8.70646156,21.5 8.33333333,21.8693701 8.33333333,22.32494 C8.33333333,22.78051 8.70646156,23.1498801 9.16666667,23.1498801 Z" id="Path"></path>
                    <path d="M9.16666667,28.0995204 L20,28.0995204 C20.4602051,28.0995204 20.8333333,27.7301503 20.8333333,27.2745803 C20.8333333,26.8190104 20.4602051,26.4496403 20,26.4496403 L9.16666667,26.4496403 C8.70646156,26.4496403 8.33333333,26.8190104 8.33333333,27.2745803 C8.33333333,27.7301503 8.70646156,28.0995204 9.16666667,28.0995204 Z" id="Path"></path>
                    <path d="M30,8.30095923 L40.8333333,8.30095923 C41.2935384,8.30095923 41.6666667,7.93158913 41.6666667,7.47601918 C41.6666667,7.02044924 41.2935384,6.65107914 40.8333333,6.65107914 L30,6.65107914 C29.5397949,6.65107914 29.1666667,7.02044924 29.1666667,7.47601918 C29.1666667,7.93158913 29.5397949,8.30095923 30,8.30095923 Z" id="Path"></path>
                    <path d="M30,13.2505995 L40.8333333,13.2505995 C41.2935384,13.2505995 41.6666667,12.8812294 41.6666667,12.4256595 C41.6666667,11.9700895 41.2935384,11.6007194 40.8333333,11.6007194 L30,11.6007194 C29.5397949,11.6007194 29.1666667,11.9700895 29.1666667,12.4256595 C29.1666667,12.8812294 29.5397949,13.2505995 30,13.2505995 Z" id="Path"></path>
                    <path d="M30,18.2002398 L40.8333333,18.2002398 C41.2935384,18.2002398 41.6666667,17.8308697 41.6666667,17.3752998 C41.6666667,16.9197298 41.2935384,16.5503597 40.8333333,16.5503597 L30,16.5503597 C29.5397949,16.5503597 29.1666667,16.9197298 29.1666667,17.3752998 C29.1666667,17.8308697 29.5397949,18.2002398 30,18.2002398 Z" id="Path"></path>
                    <path d="M30,23.1498801 L40.8333333,23.1498801 C41.2935384,23.1498801 41.6666667,22.78051 41.6666667,22.32494 C41.6666667,21.8693701 41.2935384,21.5 40.8333333,21.5 L30,21.5 C29.5397949,21.5 29.1666667,21.8693701 29.1666667,22.32494 C29.1666667,22.78051 29.5397949,23.1498801 30,23.1498801 Z" id="Path"></path>
                    <path d="M30,28.0995204 L40.8333333,28.0995204 C41.2935384,28.0995204 41.6666667,27.7301503 41.6666667,27.2745803 C41.6666667,26.8190104 41.2935384,26.4496403 40.8333333,26.4496403 L30,26.4496403 C29.5397949,26.4496403 29.1666667,26.8190104 29.1666667,27.2745803 C29.1666667,27.7301503 29.5397949,28.0995204 30,28.0995204 Z" id="Path"></path>
                </g>
            </g>
        </g>
    </g>
</svg>