<?xml version="1.0" encoding="UTF-8"?>
<svg width="101px" height="101px" viewBox="0 0 101 101" version="1.1" xmlns="http://www.w3.org/2000/svg" xmlns:xlink="http://www.w3.org/1999/xlink">
    <!-- Generator: Sketch 54.1 (76490) - https://sketchapp.com -->
    <title>Group 85</title>
    <desc>Created with Sketch.</desc>
    <g id="Page-1" stroke="none" stroke-width="1" fill="none" fill-rule="evenodd">
        <g id="Artboard" transform="translate(-908.000000, -23.000000)">
            <g id="Group-85" transform="translate(909.000000, 24.000000)">
                <circle id="Oval-Copy-20" stroke="#33CCBA" stroke-width="2" fill="#FFFFFF" cx="49.5" cy="49.5" r="49.5"></circle>
                <g id="profiles" opacity="0.58812314" transform="translate(28.000000, 25.000000)" fill="#9DA8AD" fill-rule="nonzero">
                    <path d="M34.4686611,0 L3.28173452,0 C1.52699255,0 0.0993950688,1.41282715 0.0993950688,3.14941406 L0.0993950688,13.8574219 C0.0993950688,14.437229 0.574412271,14.9072266 1.16017489,14.9072266 C1.7459375,14.9072266 2.2209547,14.437229 2.2209547,13.8574219 L2.2209547,3.14941406 C2.2209547,2.57055176 2.69682053,2.09960938 3.28173452,2.09960938 L34.4686611,2.09960938 C35.0535751,2.09960938 35.5294409,2.57055176 35.5294409,3.14941406 L35.5294409,42.2021484 C35.5294409,42.7810107 35.0535751,43.2519531 34.4686611,43.2519531 L3.28173452,43.2519531 C2.69682053,43.2519531 2.2209547,42.7810107 2.2209547,42.2021484 L2.2209547,22.7107397 C2.2209547,22.1309326 1.7459375,21.6609351 1.16017489,21.6609351 C0.574412271,21.6609351 0.0993950688,22.1309326 0.0993950688,22.7107397 L0.0993950688,42.2021484 C0.0993950688,43.9387354 1.52699255,45.3515625 3.28173452,45.3515625 L34.4686611,45.3515625 C36.2234031,45.3515625 37.6510006,43.9387354 37.6510006,42.2021484 L37.6510006,3.14941406 C37.6510006,1.41282715 36.2234031,0 34.4686611,0 Z" id="Path"></path>
                    <path d="M1.91004014,17.8151855 C1.71284117,17.6199219 1.43915998,17.5086426 1.16017489,17.5086426 C0.881189794,17.5086426 0.607508601,17.6199219 0.410203555,17.8151855 C0.212792431,18.011499 0.0993950688,18.2823486 0.0993950688,18.5573975 C0.0993950688,18.8345459 0.212898509,19.1043457 0.410203555,19.3006592 C0.607508601,19.4959229 0.881189794,19.608252 1.16017489,19.608252 C1.4390539,19.608252 1.71273509,19.4959229 1.91004014,19.3006592 C2.10745126,19.1053955 2.2209547,18.8345459 2.2209547,18.5573975 C2.2209547,18.2812988 2.10734518,18.011499 1.91004014,17.8151855 Z" id="Path"></path>
                    <path d="M6.15952408,47.7650635 C5.96221904,47.5697998 5.6897047,47.4574707 5.40955275,47.4574707 C5.13056766,47.4574707 4.85688647,47.5697998 4.6596875,47.7650635 C4.46227638,47.9603271 4.34877294,48.2311768 4.34877294,48.5072754 C4.34877294,48.7844238 4.46238245,49.0542236 4.6596875,49.2494873 C4.85688647,49.4458008 5.13056766,49.5570801 5.40955275,49.5570801 C5.6897047,49.5570801 5.96221904,49.4458008 6.15952408,49.2494873 C6.35693521,49.0542236 6.47033257,48.7844238 6.47033257,48.5072754 C6.47033257,48.2311768 6.35682913,47.9603271 6.15952408,47.7650635 Z" id="Path"></path>
                    <path d="M40.8400229,4.20583252 C40.2542603,4.20583252 39.7792431,4.67583008 39.7792431,5.25563721 L39.7792431,46.407981 C39.7792431,46.9868433 39.3033773,47.4577856 38.7184633,47.4577856 L9.65309633,47.4577856 C9.06733372,47.4577856 8.59231651,47.9277832 8.59231651,48.5075903 C8.59231651,49.0873975 9.06733372,49.557395 9.65309633,49.557395 L38.7184633,49.557395 C40.4732053,49.557395 41.9008028,48.1445679 41.9008028,46.407981 L41.9008028,5.25563721 C41.9008028,4.67583008 41.4257856,4.20583252 40.8400229,4.20583252 Z" id="Path"></path>
                    <path d="M17.2840281,7.76855469 L7.10054186,7.76855469 C6.51477924,7.76855469 6.03976204,8.23855225 6.03976204,8.81835938 L6.03976204,18.8964844 C6.03976204,19.4762915 6.51477924,19.9462891 7.10054186,19.9462891 L17.2840281,19.9462891 C17.8697907,19.9462891 18.3448079,19.4762915 18.3448079,18.8964844 L18.3448079,8.81835938 C18.3448079,8.23855225 17.8697907,7.76855469 17.2840281,7.76855469 Z M16.2232483,17.8466797 L8.16132167,17.8466797 L8.16132167,9.86816406 L16.2232483,9.86816406 L16.2232483,17.8466797 Z" id="Shape"></path>
                    <path d="M13.870863,24.7126123 C13.4565224,24.3027686 12.7850487,24.3026636 12.3706021,24.7126123 L9.55073108,27.5033081 L8.23960722,26.2056445 C7.82537271,25.7956958 7.15389908,25.7958008 6.73934633,26.2056445 C6.32511181,26.6155933 6.32511181,27.2803296 6.73934633,27.6902783 L8.80065367,29.7302588 C8.99965596,29.9270972 9.26941227,30.0377466 9.55073108,30.0377466 C9.83215596,30.0377466 10.1018062,29.9270972 10.3009146,29.7302588 L13.870863,26.1972461 C14.2850975,25.7872974 14.2850975,25.122561 13.870863,24.7126123 Z" id="Path"></path>
                    <path d="M31.2509977,26.1401367 L18.8751978,26.1401367 C18.2894352,26.1401367 17.814418,26.6101343 17.814418,27.1899414 C17.814418,27.7697485 18.2894352,28.2397461 18.8751978,28.2397461 L31.2509977,28.2397461 C31.8367603,28.2397461 32.3117775,27.7697485 32.3117775,27.1899414 C32.3117775,26.6101343 31.8367603,26.1401367 31.2509977,26.1401367 Z" id="Path"></path>
                    <path d="M30.6498538,7.76855469 L23.2243951,7.76855469 C22.6386325,7.76855469 22.1636153,8.23855225 22.1636153,8.81835938 C22.1636153,9.3981665 22.6386325,9.86816406 23.2243951,9.86816406 L30.6498538,9.86816406 C31.2356164,9.86816406 31.7106336,9.3981665 31.7106336,8.81835938 C31.7106336,8.23855225 31.2356164,7.76855469 30.6498538,7.76855469 Z" id="Path"></path>
                    <path d="M30.6498538,12.8076172 L23.2243951,12.8076172 C22.6386325,12.8076172 22.1636153,13.2776147 22.1636153,13.8574219 C22.1636153,14.437229 22.6386325,14.9072266 23.2243951,14.9072266 L30.6498538,14.9072266 C31.2356164,14.9072266 31.7106336,14.437229 31.7106336,13.8574219 C31.7106336,13.2776147 31.2356164,12.8076172 30.6498538,12.8076172 Z" id="Path"></path>
                    <path d="M30.6498538,17.8466797 L23.2243951,17.8466797 C22.6386325,17.8466797 22.1636153,18.3166772 22.1636153,18.8964844 C22.1636153,19.4762915 22.6386325,19.9462891 23.2243951,19.9462891 L30.6498538,19.9462891 C31.2356164,19.9462891 31.7106336,19.4762915 31.7106336,18.8964844 C31.7106336,18.3166772 31.2356164,17.8466797 30.6498538,17.8466797 Z" id="Path"></path>
                    <path d="M13.870863,32.7296558 C13.4565224,32.319812 12.7850487,32.319707 12.3706021,32.7296558 L9.55073108,35.5203516 L8.23960722,34.222688 C7.82537271,33.8127393 7.15389908,33.8128442 6.73934633,34.222688 C6.32511181,34.6326367 6.32511181,35.297373 6.73934633,35.7073218 L8.80065367,37.7473022 C8.99965596,37.9441406 9.26941227,38.05479 9.55073108,38.05479 C9.83215596,38.05479 10.1018062,37.9441406 10.3009146,37.7473022 L13.870863,34.2142896 C14.2850975,33.8043408 14.2850975,33.1396045 13.870863,32.7296558 Z" id="Path"></path>
                    <path d="M31.2509977,34.1186523 L18.8751978,34.1186523 C18.2894352,34.1186523 17.814418,34.5886499 17.814418,35.168457 C17.814418,35.7482642 18.2894352,36.2182617 18.8751978,36.2182617 L31.2509977,36.2182617 C31.8367603,36.2182617 32.3117775,35.7482642 32.3117775,35.168457 C32.3117775,34.5886499 31.8367603,34.1186523 31.2509977,34.1186523 Z" id="Path"></path>
                </g>
            </g>
        </g>
    </g>
</svg>