<?xml version="1.0" encoding="UTF-8"?>
<svg width="101px" height="101px" viewBox="0 0 101 101" version="1.1" xmlns="http://www.w3.org/2000/svg" xmlns:xlink="http://www.w3.org/1999/xlink">
    <!-- Generator: Sketch 54.1 (76490) - https://sketchapp.com -->
    <title>Group 93</title>
    <desc>Created with Sketch.</desc>
    <g id="Page-1" stroke="none" stroke-width="1" fill="none" fill-rule="evenodd">
        <g id="Artboard" transform="translate(-1195.000000, -23.000000)">
            <g id="Group-93" transform="translate(1196.000000, 24.000000)">
                <circle id="Oval-Copy-21" stroke="#25A8DC" stroke-width="2" fill="#FFFFFF" cx="49.5" cy="49.5" r="49.5"></circle>
                <g id="book" opacity="0.58812314" transform="translate(25.000000, 26.000000)" fill="#9DA8AD" fill-rule="nonzero">
                    <path d="M50,0.889055081 C50,0.381728498 49.5473922,0 49.043058,0 L0.956942009,0 C0.452607763,0 0,0.381728498 0,0.889055081 L0,39.4884868 C0.0196204338,40.0065789 0.441013813,40.4179127 0.956942009,40.4210526 L17.4211615,40.4210526 L15.8087186,46.1626794 L12.9387842,46.1626794 C12.434004,46.1626794 12.0255422,46.5740131 12.0255422,47.0813397 C12.0255422,47.5886663 12.434004,48 12.9387842,48 L37.0612158,48 C37.565996,48 37.9744578,47.5886663 37.9744578,47.0813397 C37.9744578,46.5740131 37.565996,46.1626794 37.0612158,46.1626794 L34.1912814,46.1626794 L32.5788385,40.4210526 L49.043058,40.4210526 C49.5589862,40.4179127 49.9803796,40.0065789 50,39.4884868 L50,0.889055081 Z M1.82648402,1.83732057 L48.173516,1.83732057 L48.173516,30.5454545 L1.82648402,30.5454545 L1.82648402,1.83732057 Z M32.2943422,46.1626794 L17.7056578,46.1626794 L19.3181007,40.4210526 L30.6814533,40.4210526 L32.2943422,46.1626794 Z M48.173516,38.5837321 L1.82648402,38.5837321 L1.82648402,32.3827751 L48.173516,32.3827751 L48.173516,38.5837321 Z" id="Shape"></path>
                    <path d="M40.6156357,4.93779904 L29.7392266,4.93779904 C29.3160495,4.94363035 28.8964397,5.02392344 28.5004637,5.17508968 L25.6144763,6.23953355 C25.2180543,6.38621409 24.7828374,6.38755981 24.3855237,6.24401914 L21.4995363,5.17284689 C21.1031143,5.02257772 20.6839505,4.94273328 20.2607734,4.93779904 L9.38436427,4.93779904 C8.86888196,4.95260165 8.45596107,5.37290664 8.44748858,5.89189596 L8.44748858,26.0373804 C8.45596107,26.5550239 8.86977386,26.9739833 9.38436427,26.9856459 L20.2607734,26.9856459 C20.4694635,26.9802632 20.6772616,27.0125598 20.8752498,27.0798444 L23.7612372,28.12814 C24.5621075,28.4170156 25.4387842,28.4152213 26.2383169,28.1223087 L29.1243043,27.0807416 C29.3222924,27.0130083 29.5300906,26.9807117 29.7387807,26.9856459 L40.6151897,26.9856459 C41.1302261,26.9739833 41.5440389,26.5554725 41.5525114,26.0373804 L41.5525114,5.89189596 C41.5440389,5.37290664 41.131118,4.95260165 40.6156357,4.93779904 L40.6156357,4.93779904 Z M21.4995363,25.3528708 C21.1017765,25.2124701 20.6821668,25.1429426 20.2607734,25.1483254 L10.2739726,25.1483254 L10.2739726,6.77511962 L20.2607734,6.77511962 C20.4712471,6.78095093 20.6790454,6.82356459 20.8752498,6.90161478 L23.7612372,7.96605864 C23.8682578,8.00508379 23.9770619,8.04769734 24.086758,8.07640547 L24.086758,26.2849881 L21.4995363,25.3528708 Z M39.7260274,25.1483254 L29.7392266,25.1483254 C29.3178332,25.1429426 28.8982235,25.2124701 28.5004637,25.3528708 L25.913242,26.2849881 L25.913242,8.07685412 C26.0229381,8.04814599 26.1317422,8.01450362 26.2387628,7.97502993 L29.1247502,6.90161478 C29.3209546,6.82401313 29.5287529,6.78139958 29.7392266,6.77556815 L39.7260274,6.77556815 L39.7260274,25.1483254 Z" id="Shape"></path>
                    <path d="M28.3096105,10.5645933 C28.3096105,11.0719199 28.7185182,11.4832536 29.2228525,11.4832536 L32.6907642,11.4832536 C33.1955444,11.4832536 33.6040062,11.0719199 33.6040062,10.5645933 C33.6040062,10.0572667 33.1955444,9.64593301 32.6907642,9.64593301 L29.2228525,9.64593301 C28.7185182,9.64593301 28.3096105,10.0572667 28.3096105,10.5645933 L28.3096105,10.5645933 Z" id="Path"></path>
                    <path d="M28.3096105,14.1244019 C28.3096105,14.6317285 28.7185182,15.0430622 29.2228525,15.0430622 L36.7798409,15.0430622 C37.2841752,15.0430622 37.6930829,14.6317285 37.6930829,14.1244019 C37.6930829,13.6170753 37.2841752,13.2057416 36.7798409,13.2057416 L29.2228525,13.2057416 C28.7185182,13.2057416 28.3096105,13.6170753 28.3096105,14.1244019 L28.3096105,14.1244019 Z" id="Path"></path>
                    <path d="M36.7798409,16.8803828 L29.2228525,16.8803828 C28.7185182,16.8803828 28.3096105,17.2917165 28.3096105,17.7990431 C28.3096105,18.3063696 28.7185182,18.7177033 29.2228525,18.7177033 L36.7798409,18.7177033 C37.2841752,18.7177033 37.6930829,18.3063696 37.6930829,17.7990431 C37.6930829,17.2917165 37.2841752,16.8803828 36.7798409,16.8803828 Z" id="Path"></path>
                    <path d="M36.7798409,20.4401914 L29.2228525,20.4401914 C28.7185182,20.4401914 28.3096105,20.8515251 28.3096105,21.3588517 C28.3096105,21.8661783 28.7185182,22.277512 29.2228525,22.277512 L36.7798409,22.277512 C37.2841752,22.277512 37.6930829,21.8661783 37.6930829,21.3588517 C37.6930829,20.8515251 37.2841752,20.4401914 36.7798409,20.4401914 Z" id="Path"></path>
                </g>
            </g>
        </g>
    </g>
</svg>