<?xml version="1.0" encoding="UTF-8"?><svg width="759px" height="19px" viewBox="0 0 759 19" version="1.1" xmlns="http://www.w3.org/2000/svg" xmlns:xlink="http://www.w3.org/1999/xlink"><!--Generator: Sketch 54.1 (76490) - https://sketchapp.com--><title>Group</title><desc>Created with Sketch.</desc><g id="Page-1" stroke="none" stroke-width="1" fill="none" fill-rule="evenodd"><g id="Artboard" transform="translate(-437.000000, -204.000000)" stroke-width="2"><g id="Group" transform="translate(438.000000, 205.000000)"><path d="M521.747505,8.93779904 L757.841341,8.93779904" id="Line-5" stroke="#33CCBA" fill="#33CCBA" stroke-linecap="round" stroke-linejoin="round" stroke-dasharray="1,5"/><path d="M234,8.93779904 L516.841127,8.93779904" id="Line-5-Copy" stroke="#128CE7" fill="#128CE7" stroke-linecap="round" stroke-linejoin="round" stroke-dasharray="1,5"/><path d="M0.185240642,8.93779904 L228.70219,8.93779904" id="Line-5-Copy-2" stroke="#FFCD0D" fill="#FFCD0D" stroke-linecap="round" stroke-linejoin="round" stroke-dasharray="1,5"/><path d="M670.843367,8.87941288 L666.842118,12.86686 L662.840868,16.8543071 C662.643122,17.0546367 662.324678,17.0471652 662.141184,16.8393641 C662.049437,16.7361639 662,16.6100824 662,16.4769962 L662,8.50163507 L662,0.526273905 C662,0.237220181 662.226251,0 662.501938,0 C662.643122,0 662.777625,0.066776547 662.869372,0.170443634 L666.842118,4.13594319 L670.843367,8.12339029 C671.041114,8.32371993 671.055366,8.6496642 670.864745,8.86446987 C670.857619,8.87240834 670.850493,8.87240834 670.843367,8.87941288 Z" id="Shape-Copy-23" stroke="#33CCBA" fill="#FFFFFF" fill-rule="nonzero"/><path d="M385.843367,8.87941288 L381.842118,12.86686 L377.840868,16.8543071 C377.643122,17.0546367 377.324678,17.0471652 377.141184,16.8393641 C377.049437,16.7361639 377,16.6100824 377,16.4769962 L377,8.50163507 L377,0.526273905 C377,0.237220181 377.226251,0 377.501938,0 C377.643122,0 377.777625,0.066776547 377.869372,0.170443634 L381.842118,4.13594319 L385.843367,8.12339029 C386.041114,8.32371993 386.055366,8.6496642 385.864745,8.86446987 C385.857619,8.87240834 385.850493,8.87240834 385.843367,8.87941288 Z" id="Shape-Copy-24" stroke="#128CE7" fill="#FFFFFF" fill-rule="nonzero"/><path d="M97.8433672,8.87941288 L93.8421176,12.86686 L89.8408681,16.8543071 C89.6431216,17.0546367 89.3246784,17.0471652 89.1411839,16.8393641 C89.0494366,16.7361639 89,16.6100824 89,16.4769962 L89,8.50163507 L89,0.526273905 C89,0.237220181 89.2262505,0 89.5019377,0 C89.6431216,0 89.7776249,0.066776547 89.8693721,0.170443634 L93.8421176,4.13594319 L97.8433672,8.12339029 C98.0411137,8.32371993 98.0553657,8.6496642 97.8647452,8.86446987 C97.8576192,8.87240834 97.8504932,8.87240834 97.8433672,8.87941288 Z" id="Shape-Copy-25" stroke="#FFCD0D" fill="#FFFFFF" fill-rule="nonzero"/></g></g></g></svg>