<?xml version="1.0" encoding="UTF-8"?>
<svg width="68px" height="64px" viewBox="0 0 68 64" version="1.1" xmlns="http://www.w3.org/2000/svg" xmlns:xlink="http://www.w3.org/1999/xlink">
    <!-- Generator: sketchtool 54.1 (76490) - https://sketchapp.com -->
    <title>A8FBD7C2-2BB7-43A2-A33D-4A442152A10F</title>
    <desc>Created with sketchtool.</desc>
    <g id="Page-1" stroke="none" stroke-width="1" fill="none" fill-rule="evenodd">
        <g id="Mentorship" transform="translate(-715.000000, -1270.000000)" fill-rule="nonzero">
            <g id="Group-19" transform="translate(684.000000, 1110.000000)">
                <g id="Group-15" transform="translate(31.000000, 160.000000)">
                    <g id="Analytics">
                        <path d="M9.15420529,32.7023809 L1.01010135,32.7023809 C0.452392578,32.7023809 0,33.1532091 0,33.7096274 L0,62.8887163 C0,63.4451346 0.452392578,63.8964803 1.01010135,63.8964803 L9.15420529,63.8964803 C9.71191406,63.8964803 10.1643066,63.4451346 10.1643066,62.8887163 L10.1643066,53.6806419 C10.1643066,53.1242236 9.71191406,52.6733954 9.15420529,52.6733954 C8.59649652,52.6733954 8.14462284,53.1242236 8.14462284,53.6806419 L8.14462284,61.88147 L2.0196838,61.88147 L2.0196838,34.7173912 L8.14462284,34.7173912 L8.14462284,50.3219462 C8.14462284,50.8788819 8.59649652,51.3297101 9.15420529,51.3297101 C9.71191406,51.3297101 10.1643066,50.8788819 10.1643066,50.3219462 L10.1643066,33.7096274 C10.1643066,33.1532091 9.71191406,32.7023809 9.15420529,32.7023809 L9.15420529,32.7023809 Z" id="Path" fill="#0084E6"></path>
                        <path d="M23.6131287,42.0786749 L15.4690246,42.0786749 C14.911316,42.0786749 14.4589234,42.5295031 14.4589234,43.0859213 L14.4589234,62.8887163 C14.4589234,63.4451346 14.911316,63.8964803 15.4690246,63.8964803 L23.6131287,63.8964803 C24.1713562,63.8964803 24.62323,63.4451346 24.62323,62.8887163 L24.62323,43.0859213 C24.62323,42.5295031 24.1713562,42.0786749 23.6131287,42.0786749 L23.6131287,42.0786749 Z M22.6035461,61.88147 L16.4786072,61.88147 L16.4786072,44.0936853 L22.6035461,44.0936853 L22.6035461,61.88147 Z" id="Shape" fill="#0084E6"></path>
                        <path d="M38.0725707,26.4513458 L29.927948,26.4513458 C29.3702393,26.4513458 28.9178467,26.9021739 28.9178467,27.4585921 L28.9178467,62.8887163 C28.9178467,63.4451346 29.3702393,63.8964803 29.927948,63.8964803 L38.0725707,63.8964803 C38.6302795,63.8964803 39.0821533,63.4451346 39.0821533,62.8887163 L39.0821533,27.4585921 C39.0821533,26.9021739 38.6302795,26.4513458 38.0725707,26.4513458 Z M37.0624695,61.88147 L30.9375305,61.88147 L30.9375305,28.4663561 L37.0624695,28.4663561 L37.0624695,61.88147 Z" id="Shape" fill="#0084E6"></path>
                        <path d="M52.5314941,31.1397515 L44.3868713,31.1397515 C43.8291625,31.1397515 43.37677,31.5905797 43.37677,32.1469979 L43.37677,62.8887163 C43.37677,63.4451346 43.8291625,63.8964803 44.3868713,63.8964803 L52.5314941,63.8964803 C53.0892029,63.8964803 53.5410766,63.4451346 53.5410766,62.8887163 L53.5410766,32.1469979 C53.5410766,31.5905797 53.0892029,31.1397515 52.5314941,31.1397515 Z M51.5213928,61.88147 L45.3964539,61.88147 L45.3964539,33.1547619 L51.5213928,33.1547619 L51.5213928,61.88147 Z" id="Shape" fill="#0084E6"></path>
                        <path d="M66.9898986,17.0750517 L58.8457947,17.0750517 C58.2880859,17.0750517 57.8356934,17.5258799 57.8356934,18.0822982 L57.8356934,31.3799171 C57.8356934,31.9363354 58.2880859,32.3876811 58.8457947,32.3876811 C59.4035035,32.3876811 59.8553772,31.9363354 59.8553772,31.3799171 L59.8553772,19.090062 L65.9803162,19.090062 L65.9803162,61.88147 L59.8553772,61.88147 L59.8553772,34.7391304 C59.8553772,34.1827122 59.4035035,33.7313664 58.8457947,33.7313664 C58.2880859,33.7313664 57.8356934,34.1827122 57.8356934,34.7391304 L57.8356934,62.8887163 C57.8356934,63.4451346 58.2880859,63.8964803 58.8457947,63.8964803 L66.9898986,63.8964803 C67.5476074,63.8964803 68,63.4451346 68,62.8887163 L68,18.0822982 C68,17.5258799 67.5476074,17.0750517 66.9898986,17.0750517 Z" id="Path" fill="#0084E6"></path>
                        <path d="M60.0571899,9.25879917 C60.8727418,9.81469973 61.8579406,10.1407867 62.9178467,10.1407867 C65.720398,10.1407867 68,7.865942 68,5.07039337 C68,2.27432706 65.720398,0 62.9178467,0 C60.1152953,0 57.8356934,2.27432706 57.8356934,5.07039337 C57.8356934,6.08126291 58.1350402,7.02329189 58.6481324,7.81521742 L51.3190613,14.9461698 C50.5040283,14.3902691 49.5188293,14.0646998 48.4589234,14.0646998 C46.5647889,14.0646998 44.9108582,15.1045549 44.0366821,16.6413044 L39.0479125,15.0248447 C39.0697021,14.8348861 39.0821533,14.6423395 39.0821533,14.4466874 C39.0821533,11.6511388 36.8020324,9.37629403 34,9.37629403 C31.1974488,9.37629403 28.9178467,11.6511388 28.9178467,14.4466874 C28.9178467,15.5533126 29.2763367,16.5781573 29.881775,17.4125258 L22.1765746,25.7401656 C21.4077148,25.2732919 20.5050049,25.0036232 19.5410766,25.0036232 C18.1237183,25.0036232 16.8407287,25.5859213 15.9183045,26.5227743 L9.80737305,22.560559 C10.0366821,21.9834369 10.1643066,21.3550724 10.1643066,20.6977226 C10.1643066,17.9016562 7.88418576,15.6273292 5.08163455,15.6273292 C2.27960198,15.6273292 -5.68434189e-14,17.9016562 -5.68434189e-14,20.6977226 C-5.68434189e-14,23.4932712 2.27960198,25.7681159 5.08215332,25.7681159 C6.49951172,25.7681159 7.78250119,25.1853001 8.70544434,24.2484472 L14.815857,28.2106626 C14.5865479,28.7877846 14.4589234,29.4161491 14.4589234,30.0740166 C14.4589234,32.8700828 16.7390442,35.14441 19.5410766,35.14441 C22.3436279,35.14441 24.6237488,32.8700828 24.6237488,30.0740166 C24.6237488,28.9673913 24.2652588,27.9430641 23.6598205,27.108178 L31.3650207,18.7805383 C32.1338806,19.2479296 33.0360718,19.5170808 34.0005188,19.5170808 C35.8941346,19.5170808 37.548584,18.4772256 38.42276,16.9404762 L43.4110107,18.5569358 C43.3892211,18.7468944 43.3772889,18.939441 43.3772889,19.1350931 C43.3772889,21.9311595 45.6568908,24.2054865 48.4594422,24.2054865 C51.2619934,24.2054865 53.5415955,21.9311595 53.5415955,19.1350931 C53.5415955,18.123706 53.2422485,17.1816771 52.7291565,16.3902691 L60.0571899,9.25879917 Z M5.08215332,23.7531056 C3.3934631,23.7531056 2.0196838,22.3825052 2.0196838,20.6977226 C2.0196838,19.0129399 3.3934631,17.6423395 5.08215332,17.6423395 C6.77084354,17.6423395 8.14462284,19.0129399 8.14462284,20.6977226 C8.14462284,22.3825052 6.77084354,23.7531056 5.08215332,23.7531056 Z M19.5410766,33.1293997 C17.8523865,33.1293997 16.4786072,31.7587992 16.4786072,30.0740166 C16.4786072,28.389234 17.8523865,27.0186335 19.5410766,27.0186335 C21.2297668,27.0186335 22.6035461,28.389234 22.6035461,30.0740166 C22.6035461,31.7587992 21.2297668,33.1293997 19.5410766,33.1293997 Z M34,17.5020705 C32.3113098,17.5020705 30.9375305,16.13147 30.9375305,14.4466874 C30.9375305,12.7619048 32.3113098,11.3913043 34,11.3913043 C35.6886902,11.3913043 37.0624695,12.7619048 37.0624695,14.4466874 C37.0624695,16.13147 35.6886902,17.5020705 34,17.5020705 L34,17.5020705 Z M62.9178467,2.01501032 C64.6065369,2.01501032 65.9803162,3.38561073 65.9803162,5.07039337 C65.9803162,6.75517602 64.6065369,8.12577643 62.9178467,8.12577643 C61.2291565,8.12577643 59.8553772,6.75517602 59.8553772,5.07039337 C59.8553772,3.38561073 61.2291565,2.01501032 62.9178467,2.01501032 Z M48.4589234,22.1899586 C46.7702332,22.1899586 45.3964539,20.8198758 45.3964539,19.1350931 C45.3964539,17.4503105 46.7702332,16.0797101 48.4589234,16.0797101 C50.1476135,16.0797101 51.5213928,17.4503105 51.5213928,19.1350931 C51.5213928,20.8198758 50.1476135,22.1899586 48.4589234,22.1899586 L48.4589234,22.1899586 Z" id="Shape" fill="#FECC0D"></path>
                    </g>
                </g>
            </g>
        </g>
    </g>
</svg>