<?xml version="1.0" encoding="UTF-8"?>
<svg width="56px" height="74px" viewBox="0 0 56 74" version="1.1" xmlns="http://www.w3.org/2000/svg" xmlns:xlink="http://www.w3.org/1999/xlink">
    <!-- Generator: sketchtool 54.1 (76490) - https://sketchapp.com -->
    <title>F3433E30-990C-4DC2-A7F6-0AA5DBEA596D</title>
    <desc>Created with sketchtool.</desc>
    <g id="Page-1" stroke="none" stroke-width="1" fill="none" fill-rule="evenodd">
        <g id="Mentorship" transform="translate(-723.000000, -1144.000000)" fill-rule="nonzero">
            <g id="Group-19" transform="translate(684.000000, 1110.000000)">
                <g id="Group-17" transform="translate(39.000000, 34.000000)">
                    <g id="think">
                        <path d="M36.8890477,9.81572856 C36.2439327,7.2074044 33.8839199,5.30962175 31.1624638,5.30962175 C29.7010239,5.30962175 28.2832258,5.86633471 27.2044907,6.84847093 C26.125196,5.86633471 24.7079575,5.30962175 23.2459581,5.30962175 C20.5250614,5.30962175 18.1644891,7.2074044 17.5193742,9.81572856 C14.7475622,11.1539809 12.9879034,13.9437438 12.9879034,17.0817343 C12.9879034,19.200399 13.8126211,21.2187652 15.2723824,22.7198617 C15.1761467,23.1621893 15.1274693,23.615223 15.1274693,24.0727643 C15.1274693,27.4784053 17.8243071,30.2614065 21.1802475,30.3695937 C21.824803,31.9118238 23.3321226,32.9559424 25.0576511,32.9559424 L25.0912217,32.955379 C25.9008326,32.9491807 26.6405048,32.6353254 27.2039311,32.1253807 C27.7651196,32.6353254 28.5025537,32.9491807 29.3076884,32.955379 L29.3507706,32.9559424 C31.0768588,32.9559424 32.5841784,31.9118238 33.2287338,30.3695937 C36.5846743,30.2614065 39.281512,27.4784053 39.281512,24.0727643 C39.281512,23.615223 39.2328346,23.1621893 39.1365989,22.7198617 C40.5958008,21.2187652 41.4205185,19.200399 41.4205185,17.0817343 C41.4205185,13.9437438 39.6608597,11.1539809 36.8890477,9.81572856 L36.8890477,9.81572856 Z M25.0744365,30.7916363 C25.0710794,30.7916363 25.0610083,30.7921997 25.0576511,30.7921997 C24.3929534,30.7921997 23.7965159,30.4749635 23.4177277,29.9734709 C24.143412,29.683845 24.8159429,29.2522234 25.4034283,28.6932565 C25.8342509,28.283047 25.8538338,27.5984254 25.4465106,27.1639864 C25.0386279,26.7295474 24.3588233,26.7103893 23.9274411,27.1205988 C23.3287656,27.6902718 22.6019622,28.0576571 21.8236839,28.1850024 C21.6754138,28.2007797 21.5277032,28.2092319 21.3833495,28.2092319 C19.1184534,28.2092319 17.2759873,26.3537097 17.2759873,24.0722009 C17.2759873,23.6180404 17.3487237,23.1717684 17.4919582,22.7457816 C17.9641846,21.5134625 19.0104681,20.5628807 20.2307593,20.2219786 C20.4372184,20.899275 20.7622936,21.5281129 21.1942353,22.0679215 C21.406849,22.3327546 21.7173771,22.470806 22.0312621,22.470806 C22.2679348,22.470806 22.506286,22.3924829 22.704912,22.2313293 C23.1670673,21.8560551 23.239244,21.1753777 22.86717,20.7099475 C22.3854318,20.1075932 22.1196647,19.3108401 22.1196647,18.4656281 C22.1196647,17.7415632 22.3115765,17.0580683 22.675258,16.4900859 C22.9964166,15.98803 22.8526226,15.318622 22.3535398,14.9946242 C21.8550164,14.6717532 21.1897592,14.8165662 20.8686004,15.318622 C20.3527324,16.1255177 20.050597,17.0642666 19.9851344,18.0542915 C18.4761362,18.3805434 17.1484191,19.2770316 16.2515248,20.5397783 C15.534233,19.5429916 15.1364215,18.3365924 15.1364215,17.0817343 C15.1364215,14.6362543 16.5973019,12.4798367 18.8571624,11.5872929 C19.2191654,11.4447338 19.4759803,11.1162281 19.5291338,10.7285575 C19.7842703,8.87247191 21.3822306,7.47336444 23.2459581,7.47336444 C24.2900035,7.47336444 25.2596342,7.89484348 25.9763665,8.66060543 C26.0753997,8.76597523 26.1302317,8.90628053 26.1302317,9.05447426 L26.1302317,10.9207023 C24.7594324,10.9680342 23.4429056,11.5027718 22.4089313,12.4567343 C21.9713945,12.8607456 21.9423,13.5448039 22.3429091,13.985441 C22.5549634,14.2187195 22.8442299,14.3364858 23.1351751,14.3364858 C23.3942282,14.3364858 23.6544003,14.2429489 23.8608595,14.0524946 C24.4936651,13.4681714 25.2943239,13.1340308 26.1296721,13.0872624 L26.1296721,29.7018762 C26.1296721,30.2980323 25.6563268,30.7871285 25.0744365,30.7916363 Z M38.1568971,20.5397783 C37.2600026,19.2770316 35.9322857,18.3805434 34.4232875,18.0542915 C34.3578249,17.0642666 34.0556895,16.1255177 33.5398213,15.318622 C33.2186627,14.8165662 32.5539649,14.6717532 32.0548821,14.9946242 C31.5557993,15.318622 31.4120052,15.98803 31.7331639,16.4900859 C32.0962858,17.0580683 32.2887572,17.7415632 32.2887572,18.4656281 C32.2887572,19.3108401 32.0229899,20.1075932 31.5412519,20.7099475 C31.1686184,21.1753777 31.2413546,21.8560551 31.7035099,22.2313293 C31.9021358,22.3924829 32.1404871,22.470806 32.3771598,22.470806 C32.6904853,22.470806 33.0015729,22.3327546 33.2141866,22.0679215 C33.6461283,21.5281129 33.9712035,20.899275 34.1776626,20.2219786 C35.3979537,20.5628807 36.4442373,21.5134625 36.9159042,22.746345 C37.0591387,23.1723319 37.1324345,23.6180404 37.1324345,24.0722009 C37.1324345,26.3537097 35.2894088,28.2092319 33.0245127,28.2092319 C32.8807187,28.2092319 32.7324486,28.2007797 32.5841784,28.1850024 C31.8064597,28.0576571 31.0790968,27.6902718 30.4804211,27.1205988 C30.049039,26.7103893 29.3692345,26.7295474 28.9619113,27.1639864 C28.5540285,27.5984254 28.5736114,28.283047 29.0049936,28.6938201 C29.5919194,29.2522234 30.2644504,29.683845 30.9901347,29.9734709 C30.6113465,30.4749635 30.0149089,30.7921997 29.3502111,30.7921997 L29.3339854,30.7916363 C28.7515356,30.7871285 28.2781902,30.2980323 28.2781902,29.7018762 L28.2781902,13.0866989 C29.1135384,13.1334673 29.9141971,13.4681714 30.5475623,14.051931 C30.753462,14.2423855 31.0136342,14.3364858 31.2726872,14.3364858 C31.5636323,14.3364858 31.8534585,14.2187195 32.0649532,13.985441 C32.4661218,13.5448039 32.4364678,12.8607456 31.9989311,12.4567343 C30.9649568,11.5027718 29.6489895,10.9674708 28.2781902,10.9201389 L28.2781902,9.05447426 C28.2781902,8.90628053 28.3324627,8.76653881 28.4314959,8.66060543 C29.1482281,7.89484348 30.1178587,7.47336444 31.1619043,7.47336444 C33.0261913,7.47336444 34.623592,8.87303549 34.8787285,10.7285575 C34.931882,11.1162281 35.188697,11.4447338 35.5507,11.5878563 C37.8105604,12.4798367 39.2714408,14.6362543 39.2714408,17.0817343 C39.2720004,18.3365924 38.8741888,19.5429916 38.1568971,20.5397783 Z" id="Shape" fill="#FFCD0E"></path>
                        <path d="M49.1305648,39.3626492 C49.0332102,39.1975512 48.8910947,39.057246 48.7243607,38.9637092 L40.7692488,34.5252193 C41.3830313,33.5227978 42.047729,32.5451694 42.7639017,31.598532 C45.3723368,28.1506305 46.7509692,24.0305038 46.7509692,19.6849872 C46.7509692,15.3473592 45.3762534,11.2317403 42.7745323,7.78496589 C42.4158865,7.30882984 41.7416771,7.21641999 41.2694507,7.57760721 C40.7966649,7.93935787 40.7049052,8.61834494 41.0641105,9.09391756 C43.3793626,12.1614736 44.6030108,15.8240589 44.6030108,19.6849872 C44.6030108,23.5532407 43.3760055,27.2192068 41.0551584,30.2873264 C37.3870114,35.1354624 34.9548218,40.74767 34.0053336,46.5407529 L20.4058858,46.5407529 C19.4642306,40.6901955 17.0566595,35.1123598 13.4287972,30.386498 C10.9468113,27.1538439 9.66441458,23.1131671 9.81772037,19.0088177 C10.1539858,9.99773091 17.4214599,2.6066337 26.3618688,2.18346434 C30.5671452,1.98230392 34.6940903,3.31379443 37.9800919,5.92888029 C38.4456042,6.29908325 39.1214921,6.21906977 39.4890901,5.75082244 C39.8572477,5.28201152 39.7777974,4.60133414 39.3122851,4.23113118 C35.6195197,1.29261094 30.9845395,-0.200596979 26.261157,0.0219755478 C21.3872661,0.253000086 16.7948088,2.32151559 13.3286451,5.84661306 C9.86360011,9.37114709 7.85384052,14.0169956 7.67088089,18.9276773 C7.4985517,23.5374635 8.93984922,28.0773787 11.7290062,31.7100999 C12.4216794,32.6127864 13.0662348,33.5487178 13.6626724,34.5122593 L5.68406118,38.9642727 C5.51844624,39.0566824 5.37297367,39.1975512 5.27785691,39.3632126 L0.344098628,47.8316734 C0.00167853688,48.4193774 -0.088962111,49.1056896 0.0900810591,49.763828 C0.268564755,50.4214029 0.69323281,50.9657194 1.28575369,51.296479 L5.1301463,53.4416271 L5.1301463,61.0592409 C5.1301463,61.4525463 5.34220059,61.8148605 5.68406118,62.0058783 L26.683587,73.722207 C27.0036267,73.900265 27.4053547,73.9008285 27.7248349,73.722207 L40.8800318,66.3823861 C41.3986975,66.0927601 41.5866929,65.4346217 41.2991047,64.9117173 C41.0115167,64.3893762 40.3574495,64.2000487 39.8387839,64.4896746 L28.2787498,70.9397691 L28.2787498,55.6087506 L31.2469498,60.7036885 C31.712462,61.5032591 32.5355011,61.9478406 33.3881941,61.9478406 C33.7988744,61.9478406 34.2157093,61.8447247 34.6034498,61.6289138 L47.1297574,54.6401376 L47.1297574,60.4213877 L44.1900924,62.0616624 C43.6714267,62.3512884 43.4834314,63.0094268 43.7710195,63.5323313 C43.9674075,63.8884473 44.3338864,64.0896077 44.7115557,64.0896077 C44.8878013,64.0896077 45.0668445,64.0462202 45.2313403,63.9543738 L48.7243607,62.0053149 C49.0662213,61.8148605 49.2782754,61.4519829 49.2782754,61.0586775 L49.2782754,53.4410635 L53.122668,51.2959156 C53.7151891,50.9657194 54.1398571,50.4214029 54.3183407,49.7632645 C54.4973838,49.1056896 54.4067433,48.4193774 54.0643233,47.83111 L49.1305648,39.3626492 Z M27.2039311,50.3904118 L24.1831373,48.7044956 L30.2252846,48.7044956 L27.2039311,50.3904118 Z M45.9872382,39.9103466 L36.4397612,45.2368725 C37.1022209,42.1890381 38.2022175,39.2110746 39.6972279,36.4010264 L45.9872382,39.9103466 Z M14.739729,36.3852491 C16.2269062,39.1721948 17.3207481,42.1574835 17.9781723,45.2425073 L8.42118364,39.9103466 L14.739729,36.3852491 Z M7.27866434,54.6401376 L9.29178105,55.7631427 C9.45683651,55.8555525 9.63532007,55.8989401 9.81156572,55.8989401 C10.1892349,55.8989401 10.5562734,55.6977796 10.7521018,55.3411002 C11.03969,54.8187592 10.8516947,54.1600573 10.333029,53.8704313 L2.32644226,49.4032042 C2.21677818,49.3417855 2.17649346,49.2448678 2.16194628,49.1924647 C2.14739909,49.1400615 2.13341124,49.0358187 2.19663596,48.9265047 L6.60053833,41.368619 L25.7201109,52.0363212 L21.3083753,59.6088572 C21.2132585,59.7717014 21.0101565,59.8280488 20.84622,59.7362026 L14.4370342,56.1603923 C13.9183684,55.8713298 13.2643014,56.0600937 12.9767132,56.5824348 C12.6896847,57.1053393 12.8771205,57.7634777 13.3957863,58.0531037 L19.8049721,61.6289138 C20.192153,61.8452881 20.6089878,61.9478406 21.0196682,61.9478406 C21.8723613,61.9478406 22.6954004,61.5032591 23.1614721,60.7042519 L26.1296721,55.609314 L26.1296721,70.9392057 L7.27866434,60.4213877 L7.27866434,54.6401376 Z M52.245916,49.1924647 C52.2319283,49.2448678 52.1916436,49.3417855 52.0814201,49.4032042 L33.5622017,59.7362026 C33.3977059,59.8280488 33.1946037,59.7717014 33.1000466,59.6088572 L28.6877514,52.0363212 L47.8078835,41.368619 L52.2112264,48.9265047 C52.2750106,49.0358187 52.2604633,49.1400615 52.245916,49.1924647 Z" id="Shape" fill="#0082E6"></path>
                        <path d="M4.8867596,31.3511666 L4.89179515,31.3511666 C5.48543512,31.3483491 5.96381613,30.861507 5.96101862,30.264224 L5.95989952,29.994883 C5.95654254,29.3987269 5.47592349,28.9180829 4.8856405,28.9180829 C4.88340246,28.9180829 4.8817239,28.9180829 4.88004533,28.9180829 C4.28696498,28.9209004 3.8080245,29.4077425 3.81082201,30.0055891 L3.81250058,30.2749299 C3.81529809,30.8705226 4.29535752,31.3511666 4.8867596,31.3511666 Z" id="Path" fill="#FECC0D"></path>
                        <path d="M3.82145273,34.2457359 C3.82425025,34.841892 4.30486929,35.322536 4.89571175,35.322536 L4.90074731,35.322536 C5.49438728,35.3197185 5.97276829,34.8328764 5.96997077,34.2350298 L5.96885168,33.965689 C5.9654947,33.3700963 5.48543512,32.8894523 4.89459266,32.8894523 C4.8929141,32.8894523 4.89067606,32.8894523 4.88899749,32.8894523 C4.29591713,32.8922698 3.81697665,33.3791119 3.82033364,33.9763949 L3.82145273,34.2457359 Z" id="Path" fill="#FECC0D"></path>
                        <path d="M6.72810659,33.1982364 L6.73426124,33.1982364 L7.00114743,33.1971096 C7.59478754,33.1937286 8.07316841,32.7068865 8.07037089,32.1096034 C8.06701376,31.5140107 7.58695433,31.0333669 6.99611187,31.0333669 C6.99387383,31.0333669 6.99219527,31.0333669 6.99051684,31.0333669 L6.72307104,31.0344938 C6.12943106,31.0378747 5.65105006,31.5247168 5.65384757,32.1219999 C5.6572047,32.7175926 6.13726413,33.1982364 6.72810659,33.1982364 Z" id="Path" fill="#FECC0D"></path>
                        <path d="M2.78468077,33.207252 L2.79083541,33.207252 L3.05828108,33.2061252 C3.65136172,33.2027442 4.12974258,32.7159021 4.12694507,32.118619 C4.12358794,31.5230263 3.64352851,31.0423825 3.05268605,31.0423825 C3.05100748,31.0423825 3.04876945,31.0423825 3.04709102,31.0423825 L2.77964522,31.0435093 C2.18600524,31.0468903 1.70762423,31.5337324 1.71098122,32.1310155 C1.71377888,32.7266082 2.19439778,33.207252 2.78468077,33.207252 Z" id="Path" fill="#FECC0D"></path>
                        <path d="M51.1940374,22.9475054 L51.1951565,23.2168464 C51.1985134,23.8124391 51.678573,24.2930829 52.2694155,24.2930829 L52.2750106,24.2930829 C52.868091,24.2902656 53.3470315,23.8034235 53.344234,23.2061404 L53.3425554,22.9367994 C53.3397579,22.3412067 52.8591388,21.8599994 52.2682964,21.8599994 C52.266618,21.8599994 52.2649394,21.8599994 52.2632608,21.8599994 C51.6696209,21.8633802 51.1912398,22.3502223 51.1940374,22.9475054 L51.1940374,22.9475054 Z" id="Path" fill="#FECC0D"></path>
                        <path d="M52.2789271,28.2650158 L52.2845223,28.2650158 C52.8776028,28.261635 53.3559836,27.7747929 53.3531861,27.1775097 L53.3515076,26.9081688 C53.34871,26.3120127 52.868091,25.8313688 52.2778082,25.8313688 C52.2755701,25.8313688 52.2738916,25.8313688 52.2716535,25.8313688 C51.678573,25.8347496 51.200192,26.3215917 51.2029895,26.9194384 L51.2046681,27.1882158 C51.2074656,27.7843719 51.6880846,28.2650158 52.2789271,28.2650158 Z" id="Path" fill="#FECC0D"></path>
                        <path d="M54.3793274,23.9752832 C54.3776488,23.9752832 54.3759702,23.9752832 54.3737322,23.9752832 L54.1062865,23.9764102 C53.513206,23.979791 53.034825,24.4660697 53.0370631,25.0633528 C53.0404202,25.6595089 53.5204796,26.1407164 54.1113221,26.1407164 L54.1163576,26.1407164 L54.3838034,26.1390259 C54.9774434,26.1362086 55.4558244,25.6493665 55.4530269,25.0520833 C55.4507887,24.4564907 54.9701698,23.9752832 54.3793274,23.9752832 L54.3793274,23.9752832 Z" id="Path" fill="#FECC0D"></path>
                        <path d="M50.1678963,26.1491685 L50.1734913,26.1491685 L50.4403776,26.1480415 C51.0340176,26.1452242 51.5123986,25.6583821 51.5101606,25.0610989 C51.5068034,24.4655062 51.026744,23.9842988 50.4359015,23.9842988 C50.434223,23.9842988 50.4325444,23.9842988 50.430866,23.9842988 L50.1634202,23.9854258 C49.5697802,23.9882432 49.0913992,24.4750853 49.0936372,25.0723684 C49.0964348,25.6685245 49.5770538,26.1491685 50.1678963,26.1491685 L50.1678963,26.1491685 Z" id="Path" fill="#FECC0D"></path>
                        <path d="M6.7247496,5.62235007 L6.73034463,5.62235007 C7.32342513,5.6189693 7.80180614,5.13212719 7.79900862,4.53484405 L7.79733006,4.2655031 C7.79453254,3.66991042 7.3139135,3.18926657 6.72363051,3.18926657 C6.72139247,3.18926657 6.71971391,3.18926657 6.71747601,3.18926657 C6.12439537,3.19208391 5.6460145,3.67892601 5.64881202,4.27677273 L5.65049058,4.54611355 C5.6532881,5.14170623 6.13390714,5.62235007 6.7247496,5.62235007 Z" id="Path" fill="#FECC0D"></path>
                        <path d="M7.80628222,8.23687249 C7.8034847,7.64127981 7.32286566,7.16063596 6.73258267,7.16063596 C6.73034463,7.16063596 6.72866606,7.16063596 6.72642817,7.16063596 C6.13334752,7.1634533 5.65496666,7.65029541 5.65776418,8.24814213 L5.65944274,8.51748294 C5.66224025,9.11307562 6.1428593,9.59371947 6.73370176,9.59371947 L6.73929679,9.59371947 C7.33237729,9.59033869 7.8107583,9.10349659 7.80796078,8.50621345 L7.80628222,8.23687249 Z" id="Path" fill="#FECC0D"></path>
                        <path d="M8.56609674,7.46942008 L8.57225124,7.46942008 L8.83969705,7.46772962 C9.43277755,7.46491228 9.91115841,6.97807018 9.9083609,6.3802236 C9.90500391,5.78463078 9.42494434,5.30398693 8.83410188,5.30398693 C8.83242331,5.30398693 8.83018542,5.30398693 8.82850685,5.30398693 L8.56106104,5.30567739 C7.96742107,5.30849473 7.48904006,5.79533683 7.49239719,6.39318341 C7.49519471,6.98877623 7.97581375,7.46942008 8.56609674,7.46942008 Z" id="Path" fill="#FECC0D"></path>
                        <path d="M4.62267092,7.47843567 L4.62826595,7.47843567 L4.89571175,7.4773088 C5.48935173,7.47392788 5.96773259,6.98708577 5.9643756,6.38923919 C5.96157809,5.79364637 5.48095904,5.31300252 4.89067606,5.31300252 C4.88843802,5.31300252 4.8867596,5.31300252 4.88452141,5.31300252 L4.61707575,5.31469298 C4.02399525,5.31751032 3.54561424,5.80491601 3.5484119,6.402199 C3.55176889,6.99779182 4.03182846,7.47843567 4.62267092,7.47843567 Z" id="Path" fill="#FECC0D"></path>
                        <path d="M48.1928264,29.1609405 C47.5997457,29.1637579 47.1213649,29.6506 47.1241624,30.2484466 L47.1258409,30.5177875 C47.1286385,31.1133802 47.6092575,31.5940242 48.2001,31.5940242 L48.205695,31.5940242 C48.7987755,31.5906433 49.2771565,31.1038012 49.274359,30.506518 L49.2732399,30.2371772 C49.2698829,29.6393305 48.7819903,29.161504 48.1928264,29.1609405 L48.1928264,29.1609405 Z" id="Path" fill="#FECC0D"></path>
                        <path d="M48.2090521,35.5653936 L48.2146471,35.5653936 C48.8082871,35.5620127 49.2866681,35.0751706 49.2833111,34.4778874 L49.282192,34.2085466 C49.2788351,33.6129538 48.7987755,33.1323099 48.207933,33.1323099 C48.205695,33.1323099 48.2040164,33.1323099 48.202338,33.1323099 C47.6086979,33.1351273 47.130317,33.6219694 47.133674,34.219816 L47.1347931,34.4891569 C47.1375906,35.0847496 47.6182097,35.5653936 48.2090521,35.5653936 Z" id="Path" fill="#FECC0D"></path>
                        <path d="M50.0414471,33.4410941 L50.0476016,33.4410941 L50.3150474,33.4394036 C50.9081279,33.4365863 51.3865088,32.9497442 51.3837113,32.3518976 C51.3803543,31.7563049 50.9002947,31.2756609 50.3094522,31.2756609 C50.3077737,31.2756609 50.3055358,31.2756609 50.3038572,31.2756609 L50.0364114,31.2773514 C49.4427714,31.2801687 48.9643904,31.7670108 48.9677475,32.3648575 C48.9705451,32.9604502 49.4511641,33.4410941 50.0414471,33.4410941 Z" id="Path" fill="#FECC0D"></path>
                        <path d="M46.3604314,31.2846765 L46.0929856,31.286367 C45.4993456,31.2891843 45.0209646,31.7765898 45.0243217,32.3738731 C45.0271192,32.9694658 45.5077383,33.4501096 46.0985807,33.4501096 L46.1041758,33.4501096 L46.3716216,33.4484192 C46.9647021,33.4456019 47.4430829,32.9587597 47.4402854,32.3609132 C47.4374879,31.76363 46.960226,31.2835496 46.3604314,31.2846765 Z" id="Path" fill="#FECC0D"></path>
                        <path d="M48.2364681,12.4370127 C48.372429,12.9108948 48.8015731,13.2185521 49.2682043,13.2185521 C49.3666781,13.2185521 49.4668304,13.2050287 49.5664231,13.175728 L50.6636221,12.8568013 C51.2337626,12.6911398 51.562195,12.0910392 51.3976991,11.517422 C51.2332031,10.9432413 50.6373251,10.6119182 50.067744,10.7781433 L48.9705451,11.09707 C48.4004044,11.2627315 48.0714126,11.862832 48.2364681,12.4370127 Z" id="Path" fill="#FECC0D"></path>
                        <path d="M48.0350445,10.7133437 C48.3170375,10.7133437 48.598471,10.6023392 48.8094062,10.3814571 L49.6011128,9.55258586 C50.0123524,9.12209122 49.9994838,8.43746961 49.5720182,8.02275227 C49.1439931,7.60859835 48.4641886,7.62212175 48.0529488,8.05261639 L47.2612423,8.8814875 C46.849443,9.31198228 46.8628712,9.99660389 47.2903368,10.4113212 C47.4984745,10.6130452 47.7670392,10.7133437 48.0350445,10.7133437 Z" id="Path" fill="#FECC0D"></path>
                        <path d="M50.918199,14.1437774 L49.8092504,13.8676749 C49.2340743,13.7239888 48.6510649,14.0784143 48.5083898,14.6582298 C48.3662744,15.2386087 48.7176466,15.8246223 49.2933822,15.9683084 L50.4023309,16.2444109 C50.4884954,16.265823 50.5757789,16.2765291 50.6608245,16.2765291 C51.1431221,16.2765291 51.5817778,15.9468963 51.7031914,15.4538559 C51.845307,14.8740405 51.4939347,14.2874635 50.918199,14.1437774 Z" id="Path" fill="#FECC0D"></path>
                        <path d="M3.11255365,22.6218172 C3.13101744,22.6218172 3.15004085,22.6218172 3.16906411,22.6201267 L4.30990485,22.5603985 C4.90242573,22.5288439 5.35786687,22.0200262 5.32653431,21.4233065 C5.29576123,20.8265868 4.79052375,20.3628472 4.19744339,20.3994731 L3.05716213,20.4597649 C2.4646411,20.4907559 2.00920011,20.9995736 2.04053267,21.5968567 C2.07018665,22.1744182 2.54465106,22.6218172 3.11255365,22.6218172 Z" id="Path" fill="#FECC0D"></path>
                        <path d="M3.09968488,19.1479959 L4.11687396,19.6703368 C4.27353674,19.7503503 4.43971114,19.7886666 4.60364751,19.7886666 C4.99474497,19.7886666 5.37185458,19.5722923 5.56208795,19.1975817 C5.83121232,18.665098 5.62083659,18.0137213 5.09265924,17.7421266 L4.07491069,17.2197856 C3.54617372,16.9487543 2.89938041,17.1600573 2.62969656,17.6925408 C2.36057233,18.2250244 2.57094806,18.8769645 3.09968488,19.1479959 Z" id="Path" fill="#FECC0D"></path>
                        <path d="M5.47536387,25.1089942 C5.97332776,24.7838694 6.11488373,24.1138981 5.79148708,23.6124055 C5.4686499,23.1114766 4.80283304,22.9689176 4.30542877,23.2946058 L3.34754781,23.9206262 C2.85014354,24.2457511 2.70858742,24.916286 3.0314246,25.4172149 C3.23732425,25.7361415 3.58198235,25.9102553 3.93335471,25.9102553 C4.13365919,25.9102553 4.33676132,25.8533442 4.51748291,25.7355781 L5.47536387,25.1089942 Z" id="Path" fill="#FECC0D"></path>
                    </g>
                </g>
            </g>
        </g>
    </g>
</svg>