<?xml version="1.0" encoding="UTF-8"?>
<svg width="68px" height="68px" viewBox="0 0 68 68" version="1.1" xmlns="http://www.w3.org/2000/svg" xmlns:xlink="http://www.w3.org/1999/xlink">
    <!-- Generator: sketchtool 54.1 (76490) - https://sketchapp.com -->
    <title>13B25A3A-CDF7-4DA1-837F-5D552B370422</title>
    <desc>Created with sketchtool.</desc>
    <g id="Page-1" stroke="none" stroke-width="1" fill="none" fill-rule="evenodd">
        <g id="Mentorship" transform="translate(-714.000000, -1391.000000)" fill-rule="nonzero">
            <g id="Group-19" transform="translate(684.000000, 1110.000000)">
                <g id="Group-14" transform="translate(30.000000, 281.000000)">
                    <g id="directions">
                        <rect id="Rectangle" fill="#FFCD0E" x="47.5531496" y="4" width="2.00787402" height="2"></rect>
                        <rect id="Rectangle" fill="#FFCD0E" x="47.5531496" y="8" width="2.00787402" height="2"></rect>
                        <rect id="Rectangle" fill="#FFCD0E" x="7.39566929" y="4" width="2.00787402" height="2"></rect>
                        <rect id="Rectangle" fill="#FFCD0E" x="7.39566929" y="8" width="2.00787402" height="2"></rect>
                        <path d="M62.0785118,34 L67.934811,27 L62.0785118,20 L37.1456693,20 L37.1456693,14 L53.5767717,14 L53.5767717,0 L5.92148819,0 L0.0651889764,7 L5.92148819,14 L30.1181102,14 L30.1181102,20 L14.4232283,20 L14.4232283,34 L30.1181102,34 L30.1181102,66 L23.5925197,66 L23.5925197,68 L43.6712598,68 L43.6712598,66 L37.1456693,66 L37.1456693,34 L62.0785118,34 Z M6.86197638,12 L2.67890551,7 L6.86197638,2 L51.5688976,2 L51.5688976,12 L6.86197638,12 Z M32.1259843,14 L35.1377953,14 L35.1377953,20 L32.1259843,20 L32.1259843,14 Z M16.4311024,22 L61.1380236,22 L65.3210945,27 L61.1380236,32 L16.4311024,32 L16.4311024,22 Z M35.1377953,66 L32.1259843,66 L32.1259843,34 L35.1377953,34 L35.1377953,66 Z" id="Shape" fill="#0084E6"></path>
                        <rect id="Rectangle" fill="#FFCD0E" x="18.4389764" y="24" width="2.00787402" height="2"></rect>
                        <rect id="Rectangle" fill="#FFCD0E" x="18.4389764" y="28" width="2.00787402" height="2"></rect>
                        <rect id="Rectangle" fill="#FFCD0E" x="58.5964567" y="24" width="2.00787402" height="2"></rect>
                        <rect id="Rectangle" fill="#FFCD0E" x="58.5964567" y="28" width="2.00787402" height="2"></rect>
                        <polygon id="Path" fill="#FFCD0E" points="47.8472362 24.7070667 49.1452598 26 24.4625984 26 24.4625984 28 49.1452598 28 47.8472362 29.2929333 49.266937 30.7070667 52.9885984 27 49.266937 23.2929333"></polygon>
                        <polygon id="Path" fill="#FFCD0E" points="43.5374016 6 18.8547402 6 20.1527638 4.70706667 18.733063 3.29293333 15.0114016 7 18.733063 10.7070667 20.1527638 9.29293333 18.8547402 8 43.5374016 8"></polygon>
                    </g>
                </g>
            </g>
        </g>
    </g>
</svg>